<svg t="1704982115452" class="icon" viewBox="0 0 1024 1024" version="1.1" xmlns="http://www.w3.org/2000/svg"
     p-id="24195" width="200" height="200">
    <path d="M283.52 492.736s50.816-10.368 58.112-4.16l24.896 184.832-41.536 5.12L283.52 492.8z m19.648-101.76h29.12l8.32 71.68h-27.072l-10.368-71.68z m-33.216 7.296l27.008-2.368 8.32 70.08-23.68 3.904-11.648-71.68z m70.592-87.296s59.2-6.272 61.312 0l29.056 348.8h-45.184l-45.184-348.8z m103.872 183.872h57.088v187.904h-41.536l-15.552-187.904z m28.544-95.552h28.544v70.592H472.96V399.296z m-34.752 0h24.896v70.592h-24.96V399.296z m-343.68 142.272L78.848 256C69.632 264.32 0 287.168 0 287.168c23.808 81.984 56.064 423.616 56.064 423.616 163.52 5.184 231.552-66.368 235.712-83.072a61.44 61.44 0 0 0 0-30.08c-39.488-65.408-197.312-56.064-197.312-56.064z m49.28 123.52l-10.24-81.28 75.584 31.808-65.28 49.536z m668.16-67.456c-39.424-65.408-197.248-56.064-197.248-56.064L599.04 256c-9.216 8.32-78.72 31.168-78.72 31.168 23.808 81.984 56.064 423.616 56.064 423.616 163.456 5.184 231.552-66.368 235.648-83.072a61.44 61.44 0 0 0 0-30.08z m-147.84 67.52l-10.304-81.28 75.52 31.744-65.28 49.536z m139.52-172.416s50.88-10.368 58.24-4.16l24.832 184.832-41.6 5.184-41.408-185.856z m19.776-101.76h29.056l8.32 71.68h-27.008l-10.368-71.68z m-33.28 7.296l27.072-2.368 8.32 70.08-23.68 3.904-11.648-71.68z m70.656-87.296s59.2-6.272 61.248 0l29.056 348.8h-45.12l-45.184-348.8z m103.808 183.872h57.152v187.904h-41.6l-15.552-187.904z m28.608-95.552h28.544v70.592h-28.544V399.296z m-34.816 0h24.96v70.592h-24.96V399.296z"
          fill="#707070" p-id="24196"></path>
</svg>